<?xml version="1.0" encoding="UTF-8"?>
<!DOCTYPE svg PUBLIC "-//W3C//DTD SVG 1.1//EN" "http://www.w3.org/Graphics/SVG/1.1/DTD/svg11.dtd">
<!-- Creator: CorelDRAW 2019 (64-Bit) -->
<svg xmlns="http://www.w3.org/2000/svg" xml:space="preserve" width="25.4mm" height="76.1998mm" version="1.1" style="shape-rendering:geometricPrecision; text-rendering:geometricPrecision; image-rendering:optimizeQuality; fill-rule:evenodd; clip-rule:evenodd"
viewBox="0 0 2540 7619.98"
 xmlns:xlink="http://www.w3.org/1999/xlink">
 <defs>
  <style type="text/css">
   <![CDATA[
    .fil0 {fill:#14AF1A}
   ]]>
  </style>
 </defs>
 <g id="Слой_x0020_1">
  <metadata id="CorelCorpID_0Corel-Layer"/>
  <path class="fil0" d="M84.67 -0.01l78.21 0 -162.88 282.12 0 -1.04 -0.41 0.71 0 -135.46 0.41 -0.71 0 1.04 84.67 -146.66zm-85.08 2540l0 -47.33 0.41 -0.71 0 1.04 1439.33 -2493 78.21 0 -1466.47 2540 1.73 0 -53.21 92.16 0 -92.16zm0 -204.12l0 -135.46 0.41 -0.71 0 -1.06 1269.39 -2198.65 78.21 0 -1347.6 2334.11 0 1.06 -0.41 0.71zm0 -294.34l0 -135.47 0.41 -0.71 0 1.04 1100.66 -1906.4 78.21 0 -1178.87 2041.86 0 -1.03 -0.41 0.71zm0 -292.25l0 -135.47 0.41 -0.71 0 -1.05 930.72 -1612.06 78.21 0 -1008.93 1747.52 0 1.06 -0.41 0.71zm0 -294.35l0 -135.46 0.41 -0.71 0 1.04 761.99 -1319.81 78.21 0 -840.2 1455.27 0 -1.04 -0.41 0.71zm0 -292.21l0 -135.47 0.41 -0.71 0 -1.09 592.05 -1025.46 78.21 0 -670.26 1160.93 0 1.09 -0.41 0.71zm0 -294.35l0 -135.46 0.41 -0.71 0 1.04 423.34 -733.25 78.21 0 -501.55 868.71 0 -1.04 -0.41 0.71zm0 -292.25l0 -135.46 0.41 -0.71 0 -1.06 253.4 -438.9 78.21 0 -331.61 574.37 0 1.05 -0.41 0.71zm0 7043.87l0 -134.28 118.94 -206.01 0 -1.06 1269.39 -2198.65 -1.11 0 1153.46 -1997.85 0 135.46 -1075.25 1862.39 1.11 0 -1347.6 2334.11 0 1.06 -118.26 204.83 -0.68 0zm0 -293.16l0 -135.47 118.94 -206.01 0 1.04 1100.66 -1906.4 -2.32 0 1323.4 -2292.19 0 135.46 -1245.19 2156.73 2.32 0 -1178.87 2041.86 0 -1.03 -118.94 206.01zm0 -292.25l0 -135.47 118.94 -206.01 0 -1.05 930.72 -1612.06 -1.13 0 1466.47 -2540 -2.33 0 27.74 -48.04 0 48.04 0.27 0 0 90.98 -1413.94 2449.02 1.13 0 -1008.93 1747.52 0 1.06 -118.94 206.01zm0 -294.35l0 -135.46 118.94 -206.01 0 1.04 761.99 -1319.81 -2.34 0 1466.47 -2540 -1.12 0 196.47 -340.29 0 135.46 -118.26 204.83 1.12 0 -1466.47 2540 2.34 0 -840.2 1455.27 0 -1.04 -118.94 206.01zm0 -292.21l0 -135.47 118.94 -206.01 0 -1.09 592.05 -1025.46 -1.13 0 1466.47 -2540 -2.33 0 366.41 -634.64 0 135.47 -288.2 499.17 2.33 0 -1466.47 2540 1.13 0 -670.26 1160.93 0 1.09 -118.94 206.01zm0 -294.35l0 -135.46 118.94 -206.01 0 1.04 423.34 -733.25 -2.36 0 1466.47 -2540 -1.12 0 535.14 -926.89 0 135.47 -456.93 791.42 1.12 0 -1466.47 2540 2.36 0 -501.55 868.71 0 -1.04 -118.94 206.01zm0 -292.25l0 -135.46 118.94 -206.01 0 -1.06 253.4 -438.9 -1.13 0 1466.47 -2540 -2.35 0 705.08 -1221.23 0 135.46 -626.87 1085.77 2.35 0 -1466.47 2540 1.13 0 -331.61 574.37 0 1.05 -118.94 206.01zm0 -294.34l0 -135.46 118.94 -206.01 0 1.04 84.67 -146.66 -2.34 0 1466.47 -2540 -1.12 0 873.79 -1513.45 0 135.47 -795.58 1377.98 1.12 0 -1466.47 2540 2.34 0 -162.88 282.12 0 -1.04 -118.94 206.01zm0 -292.29l0 -135.46 34.26 -59.34 -2.32 0 27.74 -48.04 0 1.04 1439.33 -2493 -2.33 0 1043.73 -1807.79 0 135.46 -965.52 1672.33 2.33 0 -1466.47 2540 1.72 0 -112.47 194.8zm118.94 2297.16l0 1.04 1439.33 -2493 -2.32 0 984.73 -1705.6 0 135.46 -906.52 1570.14 2.32 0 -1466.47 2540 -51.07 0 -27.74 0 27.74 -48.04zm-118.94 -2593.42l0 -135.46 59.68 -103.37 0 -1.06 1269.39 -2198.65 -1.12 0 1212.46 -2100.04 0 135.46 -1134.25 1964.58 1.12 0 -1347.6 2334.11 0 1.06 -59.68 103.37zm0 -294.34l0 -135.47 59.68 -103.37 0 1.04 1100.66 -1906.4 -2.33 0 1382.4 -2394.38 0 135.46 -1304.19 2258.92 2.33 0 -1178.87 2041.86 0 -1.03 -59.68 103.37zm0 -292.25l0 -135.47 59.68 -103.37 0 -1.05 930.72 -1612.06 -1.14 0 1466.47 -2540 78.21 0 -1466.47 2540 1.14 0 -1008.93 1747.52 0 1.06 -59.68 103.37zm0 -294.35l0 -135.46 59.68 -103.37 0 1.04 761.99 -1319.81 -2.35 0 1466.47 -2540 78.21 0 -1466.47 2540 2.35 0 -840.2 1455.27 0 -1.04 -59.68 103.37zm0 -292.21l0 -135.47 59.68 -103.37 0 -1.09 592.05 -1025.46 -1.14 0 1466.47 -2540 78.21 0 -1466.47 2540 1.14 0 -670.26 1160.93 0 1.09 -59.68 103.37zm0 -294.35l0 -135.46 59.68 -103.37 0 1.04 423.34 -733.25 -2.37 0 1466.47 -2540 78.21 0 -1466.47 2540 2.37 0 -501.55 868.71 0 -1.04 -59.68 103.37zm0 -292.25l0 -135.46 59.68 -103.37 0 -1.06 253.4 -438.9 -1.14 0 1466.47 -2540 78.21 0 -1466.47 2540 1.14 0 -331.61 574.37 0 1.05 -59.68 103.37zm0 -294.34l0 -135.46 59.68 -103.37 0 1.04 84.67 -146.66 -2.35 0 1466.47 -2540 78.21 0 -1466.47 2540 2.35 0 -162.88 282.12 0 -1.04 -59.68 103.37zm2540.68 2213.71l0 135.47 -1354.68 2346.37 -78.21 0 1432.89 -2481.84zm0 292.29l0 135.46 -1185.93 2054.09 -78.21 0 1264.14 -2189.55zm0 294.34l0 135.46 -1015.99 1759.75 -78.21 0 1094.2 -1895.21zm0 292.25l0 135.46 -847.26 1467.5 -78.21 0 925.47 -1602.96zm0 294.34l0 135.47 -677.32 1173.15 -78.21 0 755.53 -1308.62zm0 292.22l0 135.46 -508.61 880.94 -78.21 0 586.82 -1016.4zm0 294.34l0 135.47 -338.67 586.59 -78.21 0 416.88 -722.06zm0 292.25l0 135.47 -169.94 294.34 -78.21 0 248.15 -429.81zm0 294.35l0 135.46 -78.21 0 78.21 -135.46zm-736.58 -2404.54l1.11 0 -1466.47 2540 -78.21 0 1466.47 -2540 -1.11 0 814.79 -1411.26 0 135.47 -736.58 1275.79zm168.71 0l2.34 0 -1466.47 2540 -78.21 0 1466.47 -2540 -2.34 0 646.08 -1119.04 0 135.46 -567.87 983.58zm169.94 0l1.11 0 -1466.47 2540 -78.21 0 1466.47 -2540 -1.11 0 476.14 -824.7 0 135.47 -397.93 689.23zm168.73 0l2.32 0 -1466.47 2540 -78.21 0 1466.47 -2540 -2.32 0 307.41 -532.45 0 135.47 -229.2 396.98zm169.94 0l1.11 0 -1466.47 2540 -78.21 0 1466.47 -2540 -1.11 0 137.47 -238.1 0 135.46 -59.26 102.64z"/>
 </g>
</svg>
