<?xml version="1.0" encoding="utf-8"?>
<!-- Generator: Adobe Illustrator 23.0.1, SVG Export Plug-In . SVG Version: 6.00 Build 0)  -->
<svg version="1.1" id="Слой_1" xmlns="http://www.w3.org/2000/svg" xmlns:xlink="http://www.w3.org/1999/xlink" x="0px" y="0px"
	 viewBox="0 0 178 15" style="enable-background:new 0 0 178 15;" xml:space="preserve">
<style type="text/css">
	.st0{fill:#2B3747;}
	.st1{fill:#14AF1A;}
</style>
<path class="st0" d="M9,9.5H3.8l-1,2.4H0.1l5-11.2h2.6l5,11.2H10L9,9.5z M8.2,7.5L6.4,3.2L4.6,7.5H8.2z M23.5,6
	c0.7,0.2,1.2,0.5,1.6,1c0.4,0.5,0.5,1,0.5,1.7c0,1-0.4,1.8-1.1,2.3c-0.7,0.6-1.8,0.8-3.2,0.8h-5.5V0.7H21c1.3,0,2.3,0.3,3,0.8
	c0.7,0.5,1.1,1.2,1.1,2.1c0,0.6-0.1,1-0.4,1.5C24.4,5.4,24,5.8,23.5,6z M18.3,5.3h2.4c0.6,0,1-0.1,1.3-0.3c0.3-0.2,0.4-0.6,0.4-1
	c0-0.4-0.1-0.8-0.4-1c-0.3-0.2-0.7-0.4-1.3-0.4h-2.4V5.3z M21.2,9.9c1.2,0,1.8-0.5,1.8-1.4c0-0.9-0.6-1.4-1.8-1.4h-2.8v2.8H21.2z
	 M37.7,2.8h-3.6v9.1h-2.6V2.8H28V0.7h9.7V2.8z M46.1,12c-1.2,0-2.2-0.3-3.2-0.8c-0.9-0.5-1.7-1.2-2.2-2.1c-0.5-0.9-0.8-1.9-0.8-3
	s0.3-2.1,0.8-3C41.3,2.4,42,1.7,43,1.2c0.9-0.5,2-0.8,3.2-0.8c1.2,0,2.2,0.3,3.1,0.8c0.9,0.5,1.7,1.2,2.2,2.1c0.5,0.9,0.8,1.9,0.8,3
	s-0.3,2.1-0.8,3c-0.5,0.9-1.3,1.6-2.2,2.1C48.3,11.8,47.3,12,46.1,12z M46.1,9.8c0.7,0,1.3-0.1,1.8-0.4c0.5-0.3,0.9-0.7,1.2-1.3
	c0.3-0.5,0.5-1.2,0.5-1.9s-0.2-1.3-0.5-1.9c-0.3-0.5-0.7-1-1.2-1.3c-0.5-0.3-1.1-0.5-1.8-0.5c-0.7,0-1.3,0.2-1.8,0.5
	c-0.5,0.3-1,0.7-1.3,1.3c-0.3,0.5-0.4,1.2-0.4,1.9s0.1,1.3,0.4,1.9c0.3,0.5,0.7,1,1.3,1.3C44.9,9.7,45.5,9.8,46.1,9.8z M165,9.7v2.1
	h-8.5v-1.7l4.3-4.1c0.5-0.4,0.8-0.8,0.9-1.1c0.2-0.3,0.2-0.6,0.2-0.9c0-0.4-0.2-0.8-0.5-1c-0.3-0.2-0.7-0.4-1.3-0.4
	c-0.5,0-0.9,0.1-1.3,0.3c-0.4,0.2-0.7,0.5-1,0.8L156,2.5c0.4-0.7,1-1.2,1.8-1.5c0.8-0.4,1.6-0.6,2.6-0.6c0.8,0,1.6,0.1,2.2,0.4
	c0.6,0.3,1.1,0.7,1.5,1.2c0.4,0.5,0.5,1.1,0.5,1.7c0,0.6-0.1,1.2-0.4,1.7s-0.8,1.1-1.5,1.8l-2.6,2.4H165z M177.8,9.5h-1.8v2.4h-2.5
	V9.5h-6V7.8l5.3-7.1h2.7l-4.9,6.7h3V5.3h2.4v2.1h1.8V9.5z"/>
<path class="st1" d="M65.8,0.7v11.2h-2.6V2.8h-3.8l-0.1,2.3C59.3,6.7,59.2,8,59,9c-0.2,1-0.5,1.7-1,2.3c-0.5,0.5-1.1,0.8-2,0.8
	c-0.4,0-0.8-0.1-1.3-0.2l0.2-2.2c0.1,0,0.3,0.1,0.5,0.1c0.6,0,1.1-0.4,1.3-1.1c0.2-0.7,0.4-1.9,0.5-3.4l0.2-4.5H65.8z M75.6,12
	c-1.2,0-2.2-0.3-3.2-0.8c-0.9-0.5-1.7-1.2-2.2-2.1c-0.5-0.9-0.8-1.9-0.8-3s0.3-2.1,0.8-3c0.5-0.9,1.3-1.6,2.2-2.1
	c0.9-0.5,2-0.8,3.2-0.8c1.2,0,2.2,0.3,3.1,0.8c0.9,0.5,1.7,1.2,2.2,2.1c0.5,0.9,0.8,1.9,0.8,3s-0.3,2.1-0.8,3
	c-0.5,0.9-1.3,1.6-2.2,2.1C77.8,11.8,76.7,12,75.6,12z M75.6,9.8c0.7,0,1.3-0.1,1.8-0.4c0.5-0.3,0.9-0.7,1.2-1.3
	c0.3-0.5,0.5-1.2,0.5-1.9s-0.2-1.3-0.5-1.9c-0.3-0.5-0.7-1-1.2-1.3c-0.5-0.3-1.1-0.5-1.8-0.5c-0.7,0-1.3,0.2-1.8,0.5
	c-0.5,0.3-1,0.7-1.3,1.3c-0.3,0.5-0.4,1.2-0.4,1.9s0.1,1.3,0.4,1.9c0.3,0.5,0.7,1,1.3,1.3C74.3,9.7,74.9,9.8,75.6,9.8z M95.5,11.9
	l0-6.7l-3.3,5.5H91l-3.3-5.4v6.6h-2.4V0.7h2.1l4.2,7l4.1-7h2.1l0,11.2H95.5z M102.3,0.7h9v2.1h-6.5V5h3.1c1.4,0,2.4,0.3,3.1,0.8
	c0.7,0.6,1.1,1.4,1.1,2.4c0,1.1-0.4,2-1.2,2.6c-0.8,0.6-1.9,0.9-3.3,0.9h-5.3V0.7z M107.5,9.9c0.7,0,1.2-0.1,1.5-0.4
	c0.4-0.3,0.5-0.7,0.5-1.2c0-1-0.7-1.5-2-1.5h-2.6v3H107.5z M123.2,9.5H118l-1,2.4h-2.7l5-11.2h2.6l5,11.2h-2.7L123.2,9.5z
	 M122.4,7.5l-1.8-4.3l-1.8,4.3H122.4z M134.8,0.7c1,0,1.9,0.2,2.6,0.5c0.7,0.3,1.3,0.8,1.7,1.4c0.4,0.6,0.6,1.3,0.6,2.2
	c0,0.8-0.2,1.5-0.6,2.2c-0.4,0.6-1,1.1-1.7,1.4c-0.7,0.3-1.6,0.5-2.6,0.5h-2.3v3.1H130V0.7H134.8z M134.7,6.7c0.8,0,1.4-0.2,1.8-0.5
	c0.4-0.3,0.6-0.8,0.6-1.4c0-0.6-0.2-1.1-0.6-1.4c-0.4-0.3-1-0.5-1.8-0.5h-2.1v3.9H134.7z M154,9.7v4.4h-2.4v-2.3h-7.9v2.3h-2.4
	l0-4.4h0.4c0.7,0,1.1-0.5,1.4-1.5c0.3-1,0.4-2.3,0.5-4.1l0.1-3.5h8.6v9.1H154z M146,4.4c-0.1,1.3-0.2,2.5-0.3,3.4
	c-0.2,0.9-0.4,1.6-0.8,2h5v-7h-3.8L146,4.4z"/>
</svg>
