<svg width="178" height="15" viewBox="0 0 178 15" fill="none" xmlns="http://www.w3.org/2000/svg">
<path d="M8.976 9.4562H3.776L2.784 11.8562H0.128L5.12 0.6562H7.68L12.688 11.8562H9.968L8.976 9.4562ZM8.16 7.4882L6.384 3.2002L4.608 7.4882H8.16ZM23.5333 6.0162C24.2159 6.21887 24.7386 6.54953 25.1013 7.0082C25.4639 7.46687 25.6453 8.0322 25.6453 8.7042C25.6453 9.6962 25.2666 10.4695 24.5093 11.0242C23.7626 11.5789 22.6906 11.8562 21.2933 11.8562H15.7733V0.6562H20.9893C22.2906 0.6562 23.3039 0.906867 24.0293 1.4082C24.7546 1.90953 25.1173 2.6242 25.1173 3.5522C25.1173 4.10687 24.9786 4.59753 24.7013 5.0242C24.4239 5.4402 24.0346 5.77087 23.5333 6.0162ZM18.3493 5.2962H20.7653C21.3306 5.2962 21.7573 5.1842 22.0453 4.9602C22.3333 4.72553 22.4773 4.3842 22.4773 3.9362C22.4773 3.49887 22.3279 3.16287 22.0293 2.9282C21.7413 2.69353 21.3199 2.5762 20.7653 2.5762H18.3493V5.2962ZM21.1973 9.9362C22.4133 9.9362 23.0213 9.4562 23.0213 8.4962C23.0213 7.5682 22.4133 7.1042 21.1973 7.1042H18.3493V9.9362H21.1973ZM37.6989 2.7682H34.1149V11.8562H31.5549V2.7682H27.9869V0.6562H37.6989V2.7682ZM46.1141 12.0482C44.9515 12.0482 43.9008 11.7975 42.9621 11.2962C42.0341 10.7949 41.3035 10.1069 40.7701 9.2322C40.2475 8.34687 39.9861 7.35487 39.9861 6.2562C39.9861 5.15753 40.2475 4.17087 40.7701 3.2962C41.3035 2.41087 42.0341 1.71753 42.9621 1.2162C43.9008 0.714868 44.9515 0.464201 46.1141 0.464201C47.2768 0.464201 48.3221 0.714868 49.2501 1.2162C50.1781 1.71753 50.9088 2.41087 51.4421 3.2962C51.9755 4.17087 52.2421 5.15753 52.2421 6.2562C52.2421 7.35487 51.9755 8.34687 51.4421 9.2322C50.9088 10.1069 50.1781 10.7949 49.2501 11.2962C48.3221 11.7975 47.2768 12.0482 46.1141 12.0482ZM46.1141 9.8402C46.7755 9.8402 47.3728 9.69087 47.9061 9.3922C48.4395 9.08287 48.8555 8.6562 49.1541 8.1122C49.4635 7.5682 49.6181 6.94953 49.6181 6.2562C49.6181 5.56287 49.4635 4.9442 49.1541 4.4002C48.8555 3.8562 48.4395 3.43487 47.9061 3.1362C47.3728 2.82687 46.7755 2.6722 46.1141 2.6722C45.4528 2.6722 44.8555 2.82687 44.3221 3.1362C43.7888 3.43487 43.3675 3.8562 43.0581 4.4002C42.7595 4.9442 42.6101 5.56287 42.6101 6.2562C42.6101 6.94953 42.7595 7.5682 43.0581 8.1122C43.3675 8.6562 43.7888 9.08287 44.3221 9.3922C44.8555 9.69087 45.4528 9.8402 46.1141 9.8402ZM164.983 9.7442V11.8562H156.519V10.1762L160.839 6.0962C161.297 5.65887 161.607 5.28553 161.767 4.9762C161.927 4.6562 162.007 4.34153 162.007 4.0322C162.007 3.5842 161.852 3.24287 161.543 3.0082C161.244 2.76287 160.801 2.6402 160.215 2.6402C159.724 2.6402 159.281 2.7362 158.887 2.9282C158.492 3.10953 158.161 3.38687 157.895 3.7602L156.007 2.5442C156.444 1.89353 157.047 1.38687 157.815 1.0242C158.583 0.650867 159.463 0.464201 160.455 0.464201C161.287 0.464201 162.012 0.602867 162.631 0.8802C163.26 1.14687 163.745 1.53087 164.087 2.0322C164.439 2.52287 164.615 3.1042 164.615 3.7762C164.615 4.3842 164.487 4.95487 164.231 5.4882C163.975 6.02153 163.479 6.62953 162.743 7.3122L160.167 9.7442H164.983ZM177.752 9.5042H175.928V11.8562H173.4V9.5042H167.368V7.7602L172.648 0.6562H175.368L170.472 7.3922H173.48V5.2962H175.928V7.3922H177.752V9.5042Z" fill="white"/>
<path d="M65.8229 0.6562V11.8562H63.2629V2.7682H59.4229L59.3429 5.1042C59.2895 6.69353 59.1615 7.9842 58.9589 8.9762C58.7562 9.95753 58.4149 10.7149 57.9349 11.2482C57.4655 11.7709 56.8042 12.0322 55.9509 12.0322C55.5989 12.0322 55.1722 11.9735 54.6709 11.8562L54.8309 9.6642C54.9695 9.70687 55.1242 9.7282 55.2949 9.7282C55.9135 9.7282 56.3455 9.36553 56.5909 8.6402C56.8362 7.9042 56.9909 6.75753 57.0549 5.2002L57.2149 0.6562H65.8229ZM75.5641 12.0482C74.4015 12.0482 73.3508 11.7975 72.4121 11.2962C71.4841 10.7949 70.7535 10.1069 70.2201 9.2322C69.6975 8.34687 69.4361 7.35487 69.4361 6.2562C69.4361 5.15753 69.6975 4.17087 70.2201 3.2962C70.7535 2.41087 71.4841 1.71753 72.4121 1.2162C73.3508 0.714868 74.4015 0.464201 75.5641 0.464201C76.7268 0.464201 77.7721 0.714868 78.7001 1.2162C79.6281 1.71753 80.3588 2.41087 80.8921 3.2962C81.4255 4.17087 81.6921 5.15753 81.6921 6.2562C81.6921 7.35487 81.4255 8.34687 80.8921 9.2322C80.3588 10.1069 79.6281 10.7949 78.7001 11.2962C77.7721 11.7975 76.7268 12.0482 75.5641 12.0482ZM75.5641 9.8402C76.2255 9.8402 76.8228 9.69087 77.3561 9.3922C77.8895 9.08287 78.3055 8.6562 78.6041 8.1122C78.9135 7.5682 79.0681 6.94953 79.0681 6.2562C79.0681 5.56287 78.9135 4.9442 78.6041 4.4002C78.3055 3.8562 77.8895 3.43487 77.3561 3.1362C76.8228 2.82687 76.2255 2.6722 75.5641 2.6722C74.9028 2.6722 74.3055 2.82687 73.7721 3.1362C73.2388 3.43487 72.8175 3.8562 72.5081 4.4002C72.2095 4.9442 72.0601 5.56287 72.0601 6.2562C72.0601 6.94953 72.2095 7.5682 72.5081 8.1122C72.8175 8.6562 73.2388 9.08287 73.7721 9.3922C74.3055 9.69087 74.9028 9.8402 75.5641 9.8402ZM95.4809 11.8562L95.4649 5.1522L92.1689 10.6722H91.0169L87.7209 5.2802V11.8562H85.2889V0.6562H87.4329L91.6249 7.6162L95.7529 0.6562H97.8969L97.9129 11.8562H95.4809ZM102.295 0.6562H111.335V2.7202H104.871V5.0242H107.975C109.33 5.0242 110.359 5.30687 111.063 5.8722C111.778 6.43753 112.135 7.25353 112.135 8.3202C112.135 9.4402 111.74 10.3095 110.951 10.9282C110.162 11.5469 109.047 11.8562 107.607 11.8562H102.295V0.6562ZM107.463 9.9362C108.124 9.9362 108.631 9.8082 108.983 9.5522C109.335 9.28553 109.511 8.90153 109.511 8.4002C109.511 7.41887 108.828 6.9282 107.463 6.9282H104.871V9.9362H107.463ZM123.198 9.4562H117.998L117.006 11.8562H114.35L119.342 0.6562H121.902L126.91 11.8562H124.19L123.198 9.4562ZM122.382 7.4882L120.606 3.2002L118.83 7.4882H122.382ZM134.843 0.6562C135.835 0.6562 136.694 0.821534 137.419 1.1522C138.155 1.48287 138.72 1.9522 139.115 2.5602C139.51 3.1682 139.707 3.8882 139.707 4.7202C139.707 5.54153 139.51 6.26153 139.115 6.8802C138.72 7.4882 138.155 7.95753 137.419 8.2882C136.694 8.6082 135.835 8.7682 134.843 8.7682H132.587V11.8562H129.995V0.6562H134.843ZM134.699 6.6562C135.478 6.6562 136.07 6.49087 136.475 6.1602C136.88 5.81887 137.083 5.33887 137.083 4.7202C137.083 4.09087 136.88 3.61087 136.475 3.2802C136.07 2.93887 135.478 2.7682 134.699 2.7682H132.587V6.6562H134.699ZM154.038 9.7442V14.1762H151.638V11.8562H143.734V14.1762H141.334L141.35 9.7442H141.798C142.47 9.72287 142.944 9.2322 143.222 8.2722C143.499 7.3122 143.67 5.94153 143.734 4.1602L143.862 0.6562H152.47V9.7442H154.038ZM146.022 4.4002C145.968 5.73353 145.856 6.85353 145.686 7.7602C145.515 8.6562 145.254 9.31753 144.902 9.7442H149.91V2.7682H146.07L146.022 4.4002Z" fill="#14AF1A"/>
</svg>
