<svg width="20" height="20" viewBox="0 0 20 20" fill="none" xmlns="http://www.w3.org/2000/svg">
<g clip-path="url(#clip0)">
<path d="M19.4845 14.7498L17.0001 12.2654C16.3165 11.5818 15.1993 11.5818 14.5157 12.2654L13.3868 13.3943C12.8673 13.9138 12.0236 13.9138 11.504 13.3943L6.60169 8.49196C6.08215 7.97242 6.08215 7.12867 6.60169 6.60914C6.78528 6.42555 7.30481 5.90601 7.73059 5.48023C8.41419 4.79664 8.422 3.68726 7.73059 2.99195L5.24622 0.515382C4.56262 -0.168213 3.44543 -0.168213 2.76184 0.515382C2.25012 1.02319 2.08606 1.18726 1.85559 1.41382C-0.617065 3.88648 -0.617065 7.90602 1.85559 10.3787L9.61731 18.1443C12.0939 20.6209 16.1056 20.6209 18.5822 18.1443L19.4845 17.242C20.172 16.5506 20.172 15.4373 19.4845 14.7498ZM3.58606 1.34351C3.81262 1.11695 4.18762 1.11304 4.41419 1.34351L6.89856 3.82007C7.12903 4.05054 7.12903 4.42164 6.89856 4.6482L6.4845 5.06226L3.1759 1.74976L3.58606 1.34351ZM10.4454 17.3123L2.68372 9.54665C0.769653 7.63258 0.668091 4.63258 2.3595 2.59351L5.66419 5.8982C4.797 6.88258 4.83215 8.38258 5.77356 9.32399L10.672 14.2263C11.6134 15.1677 13.1095 15.2029 14.0978 14.3357L17.4025 17.6404C15.3673 19.3279 12.3712 19.2381 10.4454 17.3123ZM18.6564 16.4099L18.2423 16.824L14.9259 13.5076L15.34 13.0935C15.5704 12.867 15.9415 12.8631 16.1681 13.0935L18.6525 15.5779C18.8868 15.8084 18.8868 16.1795 18.6564 16.4099Z" fill="white"/>
</g>
<defs>
<clipPath id="clip0">
<rect width="20" height="20" fill="white"/>
</clipPath>
</defs>
</svg>
