<svg width="102" height="40" viewBox="0 0 102 40" fill="none" xmlns="http://www.w3.org/2000/svg">
<path d="M93.983 14.683C84.4118 14.1199 74.9398 11.3342 66.5912 6.62534L65.5005 6.01077C59.7506 2.77049 53.314 0.802381 46.8858 0.322514C37.4372 -0.385595 24.101 -0.27241 14.2258 4.29148C13.47 4.64132 13.0967 5.50378 13.3605 6.29327L13.8666 7.81051C8.59179 8.29692 4.35716 12.4258 3.70798 17.6501C1.56308 18.3133 0 20.3133 0 22.6733V31.1229C0 32.0265 0.731494 32.758 1.63511 32.758H9.9341C10.9434 36.9066 14.6804 39.9991 19.1348 39.9991C22.3031 39.9991 25.1065 38.4313 26.8296 36.0366H75.2607C75.3074 36.0366 75.3467 36.0142 75.3926 36.0105C77.1128 38.4201 79.9265 40 83.106 40C86.2742 40 89.0777 38.4322 90.7998 36.0376H99.4C100.303 36.0376 101.035 35.3061 101.035 34.4025V22.1626C101.035 18.2002 97.937 14.914 93.983 14.683ZM19.1348 36.7298C15.7112 36.7298 12.9256 33.9441 12.9256 30.5196C12.9256 27.0941 15.7112 24.3084 19.1348 24.3084C22.5594 24.3084 25.346 27.0941 25.346 30.5196C25.346 33.9441 22.5594 36.7298 19.1348 36.7298ZM83.106 36.7298C79.6814 36.7298 76.8948 33.9441 76.8948 30.5196C76.8948 27.0941 79.6814 24.3084 83.106 24.3084C86.5305 24.3084 89.3171 27.0941 89.3171 30.5196C89.3171 33.9441 86.5305 36.7298 83.106 36.7298ZM92.3058 32.7674C92.4826 32.0452 92.5864 31.295 92.5864 30.5196C92.5864 25.2915 88.334 21.0382 83.1069 21.0382C77.8789 21.0382 73.6265 25.2915 73.6265 30.5196C73.6265 31.295 73.7303 32.0452 73.9071 32.7674H28.3356C28.5114 32.0452 28.6162 31.295 28.6162 30.5196C28.6162 25.2915 24.3629 21.0382 19.1358 21.0382C14.2576 21.0382 10.2306 24.7434 9.71428 29.4887H3.26927V22.6733C3.26927 21.5779 4.15979 20.6874 5.25516 20.6874C6.15784 20.6874 6.88933 19.9559 6.88933 19.0523C6.88933 14.6306 10.4879 11.0321 14.9114 11.0321H16.1181C16.6429 11.0321 17.1359 10.7805 17.4436 10.3539C17.7514 9.92735 17.8346 9.37826 17.6691 8.88062L16.9357 6.68053C26.0382 2.98657 38.0096 2.93887 46.6417 3.58337C52.5946 4.02863 58.5598 5.85175 63.8944 8.86004L64.9851 9.47461C73.7649 14.4248 83.7252 17.3545 93.7912 17.9467C95.6883 18.058 97.2242 19.4209 97.6423 21.2H94.8155C93.9128 21.2 93.1804 21.9315 93.1804 22.8351C93.1804 23.7388 93.9128 24.4693 94.8155 24.4693H97.7658V32.7683H92.3058V32.7674Z" fill="#2B3747"/>
<path d="M22.4227 10.7366C34.773 19.3807 70.1401 19.4799 71.6396 19.4799C72.3982 19.4799 73.0567 18.9589 73.2307 18.2208C73.4047 17.4828 73.0492 16.7213 72.3711 16.3837L55.5832 7.9958C52.4842 6.13619 45.3105 5.95098 38.4698 6.29147C38.3828 6.27744 38.3042 6.24002 38.2135 6.24002C38.0601 6.24002 37.9226 6.28773 37.7813 6.32702C30.8658 6.70679 24.4442 7.59076 23.129 7.77878C22.4648 7.87419 21.926 8.36435 21.7707 9.01727C21.6155 9.67019 21.8727 10.3521 22.4227 10.7366ZM54.0107 10.8591L64.32 16.0123C57.9339 15.7326 48.3842 15.0563 39.8476 13.4296V9.50836C46.1458 9.25954 51.7929 9.53175 54.0107 10.8591ZM36.5784 9.67954V12.744C33.7085 12.0845 31.0239 11.3044 28.7153 10.3699C31.2371 10.0902 33.9227 9.84885 36.5784 9.67954Z" fill="#2B3747"/>
<path d="M77.6554 17.4986C73.185 19.2983 70.0065 23.2121 69.2245 27.7255L65.3874 27.7049L33.0642 27.7367C31.9613 21.3067 26.144 16.4706 19.1695 16.4706C13.5102 16.4706 8.42252 19.6903 6.20653 24.6732C5.83984 25.4983 6.2112 26.4646 7.03624 26.8312C7.85847 27.1979 8.82756 26.8266 9.19331 26.0015C10.8855 22.1981 14.8011 19.7399 19.1686 19.7399C24.9513 19.7399 29.6957 24.0072 29.9698 29.4551C30.0128 30.325 30.7312 31.0079 31.6021 31.0079H31.604L65.3799 30.9742L70.6753 31.0032H70.6837C71.5555 31.0032 72.2758 30.3185 72.317 29.4467C72.5022 25.5591 75.0764 22.0597 78.8752 20.5322C79.7124 20.1954 80.1183 19.2422 79.7816 18.406C79.4448 17.5678 78.4963 17.1637 77.6554 17.4986Z" fill="#2B3747"/>
<path d="M83.106 26.0482C80.6403 26.0482 78.6348 28.0547 78.6348 30.5195C78.6348 32.9843 80.6403 34.9908 83.106 34.9908C85.5718 34.9908 87.5773 32.9843 87.5773 30.5195C87.5773 28.0547 85.5718 26.0482 83.106 26.0482ZM83.106 31.7215C82.4438 31.7215 81.904 31.1818 81.904 30.5195C81.904 29.8572 82.4438 29.3175 83.106 29.3175C83.7683 29.3175 84.3081 29.8572 84.3081 30.5195C84.3081 31.1818 83.7683 31.7215 83.106 31.7215Z" fill="#2B3747"/>
<path d="M19.1346 26.0482C16.6698 26.0482 14.6633 28.0547 14.6633 30.5195C14.6633 32.9843 16.6698 34.9908 19.1346 34.9908C21.6013 34.9908 23.6068 32.9843 23.6068 30.5195C23.6068 28.0547 21.6013 26.0482 19.1346 26.0482ZM19.1346 31.7215C18.4723 31.7215 17.9326 31.1818 17.9326 30.5195C17.9326 29.8572 18.4723 29.3175 19.1346 29.3175C19.7988 29.3175 20.3376 29.8572 20.3376 30.5195C20.3376 31.1818 19.7988 31.7215 19.1346 31.7215Z" fill="#2B3747"/>
</svg>
