<svg width="95" height="50" viewBox="0 0 95 50" fill="none" xmlns="http://www.w3.org/2000/svg">
<path d="M17.6344 41.3331H17.6195C16.8567 41.3331 16.2458 41.9515 16.2458 42.7143C16.2458 43.4771 16.8716 44.0955 17.6344 44.0955C18.3972 44.0955 19.0155 43.4771 19.0155 42.7143C19.0155 41.9515 18.3972 41.3331 17.6344 41.3331Z" fill="#2B3747"/>
<path d="M29.4439 41.3331H29.4292C28.6664 41.3331 28.0554 41.9515 28.0554 42.7143C28.0554 43.4771 28.6812 44.0955 29.4439 44.0955C30.2067 44.0955 30.8251 43.4771 30.8251 42.7143C30.8251 41.9515 30.2067 41.3331 29.4439 41.3331Z" fill="#2B3747"/>
<path d="M78.159 41.3331H78.1443C77.3815 41.3331 76.7705 41.9515 76.7705 42.7143C76.7705 43.4771 77.3963 44.0955 78.159 44.0955C78.9218 44.0955 79.5402 43.4771 79.5402 42.7143C79.5402 41.9515 78.9218 41.3331 78.159 41.3331Z" fill="#2B3747"/>
<path d="M93.0181 24.6346L91.1611 22.7776L87.42 11.5541C87.9782 11.3767 88.3827 10.8547 88.3827 10.2379C88.3827 9.47516 87.7644 8.85676 87.0016 8.85676H73.6207V2.85735C73.6207 1.28172 72.339 0 70.7633 0H2.85735C1.28172 0 0 1.2819 0 2.85735V35.3339C0 36.9095 1.28172 38.1912 2.85735 38.1912H4.42857V41.2379C4.42857 42.8135 5.71029 44.0952 7.28592 44.0952H10.4665C11.114 47.4542 14.0743 50 17.6194 50C20.047 50 22.1995 48.8056 23.5242 46.9747C24.849 48.8056 27.0016 50 29.4291 50C32.9743 50 35.9348 47.4542 36.5821 44.0952H70.9911C71.6386 47.4542 74.5989 50 78.1441 50C82.1616 50 85.43 46.7314 85.43 42.7141C85.43 42.6824 85.428 42.6513 85.4276 42.6198H91.43C93.0056 42.6198 94.2873 41.3381 94.2873 39.7624V27.6988C94.2875 26.5414 93.8367 25.4532 93.0181 24.6346ZM10.4665 41.3331H7.28592C7.23343 41.3331 7.1909 41.2906 7.1909 41.2381V38.1914H11.9136C11.199 39.0912 10.6921 40.1622 10.4665 41.3331ZM17.6194 47.238C15.125 47.238 13.0958 45.2086 13.0958 42.7144C13.0958 40.2296 15.1099 38.2069 17.5912 38.1914H17.648C20.1293 38.2067 22.1434 40.2295 22.1434 42.7144C22.1432 45.2086 20.1138 47.238 17.6194 47.238ZM29.4293 47.238C26.9349 47.238 24.9055 45.2086 24.9055 42.7144C24.9055 40.2296 26.9196 38.2069 29.4009 38.1914H29.4577C31.939 38.2067 33.9531 40.2295 33.9531 42.7144C33.9529 45.2086 31.9237 47.238 29.4293 47.238ZM70.9913 41.3331H36.5823C36.3567 40.1622 35.8497 39.091 35.135 38.1912H61.9058C62.6686 38.1912 63.287 37.5728 63.287 36.8101C63.287 36.0473 62.6686 35.4289 61.9058 35.4289H2.85735C2.80487 35.4289 2.76233 35.3864 2.76233 35.3339V2.85735C2.76233 2.80487 2.80487 2.76233 2.85735 2.76233H70.7631C70.8156 2.76233 70.8582 2.80487 70.8582 2.85735V35.4291H67.8113C67.0485 35.4291 66.4301 36.0475 66.4301 36.8102C66.4301 37.573 67.0485 38.1914 67.8113 38.1914H72.4384C71.7237 39.0912 71.2169 40.1622 70.9913 41.3331ZM88.5297 23.6187H79.6205C79.568 23.6187 79.5254 23.5761 79.5254 23.5236V17.5237H86.4981L88.5297 23.6187ZM78.1443 47.238C75.6499 47.238 73.6207 45.2086 73.6207 42.7144C73.6207 40.2296 75.6348 38.2069 78.1161 38.1914H78.1444C78.1476 38.1914 78.1507 38.191 78.154 38.1909C80.644 38.196 82.6682 40.2232 82.6682 42.7143C82.6679 45.2086 80.6386 47.238 78.1443 47.238ZM91.5252 39.7628C91.5252 39.8153 91.4826 39.8578 91.4301 39.8578H84.8462C83.733 37.2563 81.1484 35.4285 78.1443 35.4285C78.1347 35.4285 78.1255 35.4293 78.1159 35.4293H73.6207V11.7147V11.7139C73.6207 11.6614 73.6632 11.6189 73.7157 11.6189H84.5298L85.5773 14.7613H78.1443C77.3815 14.7613 76.7631 15.3797 76.7631 16.1425V23.5236C76.7631 25.0993 78.0448 26.381 79.6205 26.381H90.858L91.065 26.588C91.3616 26.8848 91.5252 27.2793 91.5252 27.699V31.0005H89.954C89.1912 31.0005 88.5728 31.6189 88.5728 32.3817C88.5728 33.1445 89.1912 33.7628 89.954 33.7628H91.5252V39.7628Z" fill="#2B3747"/>
<path d="M66.3344 29.5242H7.28595C6.52318 29.5242 5.90479 30.1426 5.90479 30.9053C5.90479 31.6681 6.52318 32.2865 7.28595 32.2865H66.3344C67.0972 32.2865 67.7156 31.6681 67.7156 30.9053C67.7156 30.1426 67.0972 29.5242 66.3344 29.5242Z" fill="#2B3747"/>
</svg>
