<svg width="100" height="50" viewBox="0 0 100 50" fill="none" xmlns="http://www.w3.org/2000/svg">
<path d="M100.001 34.7802C100.001 31.2325 98.9082 27.9358 97.0457 25.2049C96.9479 24.9622 96.7855 24.7619 96.5889 24.5948C93.4787 20.4445 88.5364 17.7422 82.9629 17.7422H80.8107L66.4953 4.29803C63.542 1.52651 59.6851 0 55.6353 0H8.30349C3.7249 0 0 3.7249 0 8.30442V33.0082C0 33.2417 0.0175355 33.4705 0.035071 33.6985C0.0286105 33.7576 0 33.8102 0 33.8711C0 34.1009 0.0507605 34.3169 0.137515 34.5153C0.856468 38.721 4.51953 41.9355 8.92738 41.9355H8.97445C10.189 46.5686 14.3994 50 19.4071 50C24.4158 50 28.6252 46.5686 29.8407 41.9355H73.2631C74.4785 46.5686 78.6889 50 83.6966 50C88.7533 50 92.9978 46.5012 94.1644 41.8008C97.5533 41.1677 100.001 38.2503 100.001 34.7802ZM19.4071 46.7744C15.2318 46.7744 11.8364 43.379 11.8364 39.2028C11.8364 35.0275 15.2328 31.6321 19.4071 31.6321C23.5815 31.6321 26.9787 35.0275 26.9787 39.2028C26.9787 43.379 23.5815 46.7744 19.4071 46.7744ZM83.6957 46.7744C79.5204 46.7744 76.125 43.379 76.125 39.2028C76.125 35.0275 79.5214 31.6321 83.6957 31.6321C87.8701 31.6321 91.2673 35.0275 91.2673 39.2028C91.2673 43.379 87.871 46.7744 83.6957 46.7744ZM94.4505 38.3555C94.0149 32.7977 89.3634 28.4056 83.6957 28.4056C77.909 28.4056 73.1846 32.9851 72.9244 38.7099H30.1794C29.9192 32.986 25.1947 28.4056 19.4071 28.4056C13.6306 28.4056 8.91262 32.9694 8.63667 38.6804C6.51026 38.5715 4.6995 37.3016 3.81534 35.4843H5.2311C6.12171 35.4843 6.84344 34.7626 6.84344 33.8711C6.84344 32.9795 6.12171 32.2588 5.2311 32.2588H3.2256V8.30442C3.2256 5.50336 5.50336 3.2256 8.30349 3.2256H55.6353C58.8619 3.2256 61.9342 4.442 64.2868 6.65055L79.0673 20.5303C79.3663 20.8118 79.7613 20.9678 80.172 20.9678H82.9629C86.3408 20.9678 89.4363 22.1916 91.8396 24.2128C90.996 24.2663 90.3232 24.9492 90.3232 25.8066C90.3232 26.6982 91.0458 27.4199 91.9365 27.4199H94.6295C95.9807 29.5537 96.7753 32.0732 96.7753 34.7802C96.7753 36.3694 95.8367 37.7381 94.4505 38.3555Z" fill="#2B3747"/>
<path d="M69.3555 27.4199H32.2588C31.3672 27.4199 30.6455 28.1407 30.6455 29.0323C30.6455 29.9238 31.3672 30.6455 32.2588 30.6455H69.3555C70.2461 30.6455 70.9687 29.9238 70.9687 29.0323C70.9687 28.1407 70.2461 27.4199 69.3555 27.4199Z" fill="#2B3747"/>
<path d="M45.1621 20.9678V6.48441C45.1621 5.59287 44.4394 4.87207 43.5488 4.87207H8.06449C7.17387 4.87207 6.45215 5.59287 6.45215 6.48441V20.9678C6.45215 21.8593 7.17387 22.581 8.06449 22.581H43.5488C44.4394 22.581 45.1621 21.8593 45.1621 20.9678ZM41.9356 19.3554H9.67775V8.09767H41.9356V19.3554Z" fill="#2B3747"/>
<path d="M62.5046 7.962C60.3782 5.96942 57.6003 4.87207 54.6848 4.87207H50C49.1094 4.87207 48.3877 5.59287 48.3877 6.48441V20.9678C48.3877 21.8593 49.1094 22.581 50 22.581H74.0356C74.6982 22.581 75.2926 22.1759 75.5362 21.5603C75.7799 20.9447 75.6211 20.2433 75.1385 19.791L62.5046 7.962ZM51.6133 19.3554V8.09767H54.6848C56.7779 8.09767 58.7724 8.88492 60.2989 10.3154L69.9526 19.3554H51.6133Z" fill="#2B3747"/>
<path d="M19.407 33.6938C16.3688 33.6938 13.8972 36.1645 13.8972 39.2027C13.8972 42.2419 16.3688 44.7126 19.407 44.7126C22.4453 44.7126 24.9169 42.2419 24.9169 39.2027C24.9169 36.1645 22.4453 33.6938 19.407 33.6938ZM19.407 41.487C18.1473 41.487 17.1228 40.4635 17.1228 39.2027C17.1228 37.943 18.1473 36.9194 19.407 36.9194C20.6659 36.9194 21.6913 37.943 21.6913 39.2027C21.6913 40.4635 20.6659 41.487 19.407 41.487Z" fill="#2B3747"/>
<path d="M83.6956 33.6938C80.6574 33.6938 78.1858 36.1645 78.1858 39.2027C78.1858 42.2419 80.6574 44.7126 83.6956 44.7126C86.7339 44.7126 89.2054 42.2419 89.2054 39.2027C89.2054 36.1645 86.7348 33.6938 83.6956 33.6938ZM83.6956 41.487C82.4368 41.487 81.4114 40.4635 81.4114 39.2027C81.4114 37.943 82.4368 36.9194 83.6956 36.9194C84.9554 36.9194 85.9798 37.943 85.9798 39.2027C85.9798 40.4635 84.9554 41.487 83.6956 41.487Z" fill="#2B3747"/>
</svg>
