<svg width="76" height="51" viewBox="0 0 76 51" fill="none" xmlns="http://www.w3.org/2000/svg">
<path d="M75.4414 22.8749C75.4225 22.7982 75.4143 22.7203 75.3801 22.6507C75.3753 22.6389 75.3765 22.626 75.3706 22.6153L69.4713 10.8168C69.4454 10.7649 69.3994 10.7307 69.3675 10.6835C69.318 10.6127 69.2743 10.5419 69.2106 10.4829C69.154 10.4322 69.0891 10.3992 69.0266 10.3591C68.9617 10.319 68.9028 10.2753 68.8296 10.2482C68.7494 10.2175 68.6657 10.2105 68.5807 10.1987C68.5241 10.1904 68.4746 10.1656 68.4156 10.1656H54.2672C53.6149 10.1656 53.0876 10.6941 53.0876 11.3453V13.1477C51.8349 12.0306 50.1916 11.3453 48.3856 11.3453C48.3845 11.3453 48.3845 11.3453 48.3845 11.3453C48.0506 11.3453 47.7203 11.3771 47.39 11.4243L48.3361 7.8925C48.3786 7.73561 48.3868 7.57636 48.3644 7.42537C48.3007 6.97004 47.974 6.57487 47.5021 6.44747L25.9304 0.667332C25.908 0.660255 25.8868 0.655537 25.8632 0.649639L25.8407 0.643741C25.8054 0.634304 25.77 0.64374 25.7346 0.637842C25.6367 0.621328 25.5399 0.596556 25.4338 0.608352L11.8882 1.77618L6.39118 0.30283C6.23429 0.260364 6.07622 0.252107 5.92405 0.27334C5.46872 0.337039 5.07236 0.664974 4.94615 1.13682L0.058981 19.3749C0.0448255 19.4256 0.0566217 19.4764 0.049544 19.5271C0.0424663 19.579 0.0188739 19.625 0.0188739 19.6793V25.4075C0.0165147 25.4405 0 25.4677 0 25.5007C0 25.5337 0.0165147 25.5597 0.0188739 25.5927V30.1283C0.0165147 30.1578 0 30.1861 0 30.218C0 30.2498 0.0165147 30.2781 0.0188739 30.3088V34.7701C0.0188739 34.7843 0.0259516 34.7949 0.0259516 34.8067C0.0212332 34.8527 0 34.8905 0 34.9365C0 35.5888 0.52729 36.1161 1.17962 36.1161H7.0671V40.8251C7.0671 41.4775 7.59439 42.0047 8.24672 42.0047H9.44521C9.44521 46.5569 13.1504 50.2621 17.7026 50.2621C22.2323 50.2621 25.9198 46.5946 25.9564 42.0732C25.9929 46.5946 29.6804 50.2621 34.2101 50.2621C38.7623 50.2621 42.4675 46.5569 42.4675 42.0047H53.0876C53.0876 46.5569 56.7928 50.2621 61.3449 50.2621C65.8971 50.2621 69.6023 46.5569 69.6023 42.0047C69.6023 41.1873 69.4796 40.3969 69.2555 39.6502H74.316C74.9684 39.6502 75.4957 39.1229 75.4957 38.4706V23.1426C75.4957 23.1296 75.4886 23.119 75.4886 23.1072C75.4862 23.0282 75.4603 22.9527 75.4414 22.8749ZM61.3449 33.7474C59.0364 33.7474 56.9473 34.7041 55.448 36.2352V34.9306V34.9294V34.9282V27.9413C55.4492 27.913 55.4645 27.8871 55.4645 27.8587C55.4645 27.8304 55.4492 27.8045 55.448 27.7762L55.4468 18.7592C55.4527 18.6471 55.4645 18.5374 55.4645 18.4241C55.4645 18.3109 55.4527 18.2012 55.4468 18.088V12.5237H67.6878L73.1364 23.421V33.7498H61.3909C61.3744 33.7498 61.3603 33.7474 61.3449 33.7474ZM26.3008 39.6455H25.6119C25.2073 38.2913 24.4641 37.081 23.4791 36.1161H28.4324C27.4486 37.0822 26.7054 38.2913 26.3008 39.6455ZM6.91965 2.8862L10.337 3.80276L6.06089 19.763L2.64235 18.8465L6.91965 2.8862ZM48.3845 25.5078C48.7879 25.5078 49.1795 25.4665 49.5629 25.4016V26.6803H47.2037V25.3981C47.5906 25.4618 47.9834 25.5078 48.3845 25.5078ZM53.0876 26.6791H51.9221V24.5499C52.3397 24.3069 52.7302 24.0226 53.0876 23.7029V26.6791ZM44.8444 26.6791H43.3015L44.021 23.9908C44.2841 24.196 44.5566 24.3848 44.8432 24.5523V26.6791H44.8444ZM18.8822 30.5247L30.919 33.7498H18.8822V30.5247ZM16.5229 33.7498H8.27621V23.6121L16.5229 29.3828V33.7498ZM5.91697 22.1659V24.3211H2.37811V21.2187L5.91697 22.1659ZM5.91697 26.6791V29.0384H2.37811V26.6791H5.91697ZM39.036 33.4832L19.6536 28.2905L26.3692 3.22711L45.7515 8.41979L39.036 33.4832ZM17.5056 27.1923L8.24908 20.7138L12.7069 4.07289L23.9604 3.10207L17.5056 27.1923ZM2.37811 31.3976H5.91697V33.7568H2.37811V31.3976ZM41.407 33.7498L42.6692 29.0384H53.0888V33.7498H41.407ZM48.3856 13.7033C50.9301 13.7033 52.9968 15.7323 53.0876 18.2555V18.5917C52.9968 21.1172 50.9301 23.1473 48.3845 23.1473C46.9465 23.1473 45.6112 22.4974 44.7182 21.3932L46.6846 14.0537C47.2261 13.8413 47.7911 13.7033 48.3856 13.7033ZM9.42634 39.6455V36.1161H11.9248C10.9398 37.081 10.1966 38.2913 9.79202 39.6455H9.42634ZM17.7026 47.9028C14.4503 47.9028 11.8045 45.257 11.8045 42.0047C11.8045 38.7844 14.402 36.1668 17.6117 36.1161H17.7934C21.0031 36.1668 23.6007 38.7844 23.6007 42.0047C23.6007 45.257 20.9548 47.9028 17.7026 47.9028ZM34.2101 47.9028C30.9579 47.9028 28.3121 45.257 28.3121 42.0047C28.3121 38.7844 30.9096 36.1668 34.1193 36.1161H34.301C37.5107 36.1668 40.1082 38.7844 40.1082 42.0047C40.1082 45.257 37.4624 47.9028 34.2101 47.9028ZM42.1195 39.6455C41.7149 38.2913 40.9717 37.081 39.9867 36.1161H46.0146C46.0276 36.1161 46.037 36.109 46.0488 36.109H53.0876V39.6455H42.1195ZM61.3449 47.9028C58.0927 47.9028 55.4468 45.257 55.4468 42.0047C55.4468 38.7549 58.0892 36.1114 61.3367 36.1078C61.3402 36.1078 61.3426 36.109 61.3449 36.109H61.3685C64.6101 36.122 67.243 38.7608 67.243 42.0047C67.243 45.257 64.5972 47.9028 61.3449 47.9028ZM67.1156 36.109H73.1364V37.291H68.1148C67.8175 36.8663 67.4837 36.4711 67.1156 36.109Z" fill="#2B3747"/>
<path d="M69.3794 22.4266L65.9326 15.5376C65.732 15.1377 65.3239 14.8853 64.8768 14.8853H58.9858C58.3334 14.8853 57.8062 15.4137 57.8062 16.0649V23.1438C57.8062 23.7949 58.3334 24.3234 58.9858 24.3234H68.4192H68.4428C69.0951 24.3234 69.6224 23.7949 69.6224 23.1438C69.6224 22.8736 69.5328 22.6247 69.3794 22.4266ZM60.1666 21.9642V17.2445H64.149L66.5117 21.9642H60.1666Z" fill="#2B3747"/>
<path d="M17.7027 38.4659C15.7516 38.4659 14.1638 40.0537 14.1638 42.0048C14.1638 43.9559 15.7516 45.5437 17.7027 45.5437C19.6538 45.5437 21.2415 43.9559 21.2415 42.0048C21.2415 40.0537 19.6538 38.4659 17.7027 38.4659ZM17.7027 43.1844C17.0515 43.1844 16.5231 42.656 16.5231 42.0048C16.5231 41.3537 17.0515 40.8252 17.7027 40.8252C18.3538 40.8252 18.8823 41.3537 18.8823 42.0048C18.8823 42.656 18.3538 43.1844 17.7027 43.1844Z" fill="#2B3747"/>
<path d="M34.21 38.4659C32.2589 38.4659 30.6711 40.0537 30.6711 42.0048C30.6711 43.9559 32.2589 45.5437 34.21 45.5437C36.1611 45.5437 37.7489 43.9559 37.7489 42.0048C37.7489 40.0537 36.1611 38.4659 34.21 38.4659ZM34.21 43.1844C33.5589 43.1844 33.0304 42.656 33.0304 42.0048C33.0304 41.3537 33.5589 40.8252 34.21 40.8252C34.8612 40.8252 35.3896 41.3537 35.3896 42.0048C35.3896 42.656 34.8612 43.1844 34.21 43.1844Z" fill="#2B3747"/>
<path d="M61.3413 38.4659C59.3903 38.4659 57.8025 40.0537 57.8025 42.0048C57.8025 43.9559 59.3903 45.5437 61.3413 45.5437C63.2924 45.5437 64.8802 43.9559 64.8802 42.0048C64.8802 40.0537 63.2924 38.4659 61.3413 38.4659ZM61.3413 43.1844C60.6902 43.1844 60.1617 42.656 60.1617 42.0048C60.1617 41.3537 60.6902 40.8252 61.3413 40.8252C61.9925 40.8252 62.521 41.3537 62.521 42.0048C62.521 42.656 61.9925 43.1844 61.3413 43.1844Z" fill="#2B3747"/>
<path d="M60.1605 25.4995H58.9809C58.3286 25.4995 57.8013 26.028 57.8013 26.6791C57.8013 27.3315 58.3286 27.8588 58.9809 27.8588H60.1605C60.8128 27.8588 61.3401 27.3315 61.3401 26.6791C61.3401 26.028 60.8128 25.4995 60.1605 25.4995Z" fill="#2B3747"/>
<path d="M50.7425 30.218H44.8444C44.1921 30.218 43.6648 30.7453 43.6648 31.3976C43.6648 32.05 44.1921 32.5773 44.8444 32.5773H50.7425C51.3948 32.5773 51.9221 32.05 51.9221 31.3976C51.9221 30.7453 51.3937 30.218 50.7425 30.218Z" fill="#2B3747"/>
</svg>
