<svg width="86" height="50" viewBox="0 0 86 50" fill="none" xmlns="http://www.w3.org/2000/svg">
<path d="M85.2346 31.2554C85.2346 31.2436 85.2202 31.2363 85.2176 31.2252C83.9109 27.2593 80.9455 24.0572 77.0924 22.4496C75.9719 16.7725 70.4666 0.789506 57.3756 0.00340507C56.8085 -0.0359329 56.2728 0.26828 56.0165 0.775738C55.7568 1.27992 55.8191 1.88965 56.1758 2.33089C58.2043 4.94489 59.905 7.7982 61.2399 10.8252L58.8055 11.5759L53.0851 7.77066C52.379 7.28746 51.5431 7.0298 50.6875 7.03308H41.5355C40.7442 7.03308 40.103 7.67428 40.103 8.46498C40.103 9.25632 40.7442 9.89753 41.5355 9.89753H50.6875C50.9714 9.89818 51.2487 9.98407 51.4834 10.144L55.2736 12.6643L45.6588 15.6264C45.4582 15.6651 45.2648 15.7353 45.0858 15.8343L40.5023 18.1172C40.1666 18.2883 39.7765 18.3158 39.4198 18.1945L37.3802 17.5042C37.0196 17.3835 36.7199 17.1265 36.5468 16.7882L36.1515 16.0001C35.6709 15.0187 34.8304 14.2608 33.8057 13.8831L23.5064 10.028C23.3772 9.97161 23.2428 9.929 23.1051 9.89884L6.36489 6.31844C5.41357 6.10143 4.43537 6.5525 3.98364 7.41728C3.53126 8.28205 3.71877 9.34286 4.43996 10.0005C4.82547 10.4574 5.54142 11.2894 6.46062 12.2834C5.98791 12.8072 5.72631 13.4884 5.72893 14.1939V17.059C5.72893 18.641 7.01135 19.9234 8.59338 19.9234H17.1867C21.5873 19.9923 25.7519 21.9257 28.6452 25.2426C30.1105 27.0167 31.1156 29.1252 31.5713 31.3812H27.9804C27.966 31.338 27.9574 31.298 27.9443 31.2554C26.0286 25.3534 20.5304 21.3566 14.3256 21.3553C8.12133 21.3534 2.62059 25.3475 0.701558 31.2481C0.234094 32.6781 -0.00324464 34.1736 3.34993e-05 35.6776C0.0105236 40.2578 2.20164 44.5594 5.90071 47.2606C10.9209 50.9125 17.723 50.9125 22.7425 47.2606C25.2248 45.455 27.0632 42.9013 27.9876 39.9746H31.3405L30.2207 42.2018C29.9991 42.6469 30.0246 43.1747 30.2875 43.5963C30.5498 44.0179 31.0127 44.2736 31.5096 44.2716H60.1817C61.0176 45.3803 62.0089 46.3624 63.1248 47.1891C63.1523 47.2101 63.1648 47.2416 63.1936 47.2619C63.2225 47.2822 63.2599 47.2921 63.2913 47.3118C68.2597 50.8961 74.9648 50.8961 79.9339 47.3118C79.9653 47.2921 80.0014 47.2849 80.0309 47.2619C80.0611 47.239 80.0729 47.2101 80.0997 47.1891C85.0681 43.5517 87.1399 37.1357 85.2373 31.2796L85.2346 31.2554ZM81.9689 30.8082L79.2277 31.6946C77.9814 29.3147 75.6939 27.6546 73.0445 27.2075V24.3188C76.9324 24.8164 80.2977 27.2632 81.9689 30.8082ZM74.9838 40.3168C72.9645 41.733 70.2751 41.7369 68.2525 40.3254C67.1497 39.5235 66.3682 38.3565 66.0469 37.0315L69.1618 39.1983C69.8758 39.7025 70.7281 39.9733 71.6021 39.9746C71.8591 39.9746 72.1148 39.9516 72.3672 39.9057C73.4936 39.7071 74.4934 39.0639 75.1412 38.1211C75.7916 37.1875 76.0427 36.0336 75.8408 34.9138C75.6382 33.7946 74.9989 32.802 74.0627 32.1549L70.9596 29.9933C71.1759 29.9664 71.3943 29.9513 71.6126 29.9487C74.0843 29.9474 76.2787 31.532 77.055 33.8792C77.2392 34.4607 77.3363 35.0672 77.3415 35.6776C77.3461 37.5134 76.4688 39.239 74.9838 40.3168ZM60.1541 35.6776C60.1548 34.8233 60.2505 33.9716 60.4406 33.1383L61.4693 33.8549C61.4824 33.8615 61.489 33.8733 61.5008 33.8805L61.5224 33.8916L63.0474 34.9531C63.0278 35.1911 63.012 35.4317 63.012 35.6776C63.0074 37.9264 63.8925 40.0847 65.4739 41.6832L63.7739 44.0192C61.4647 41.8595 60.1541 38.8397 60.1541 35.6776ZM54.3466 34.4489C53.9886 34.3899 53.668 34.1945 53.4516 33.9035L50.5583 30.026C49.868 29.1206 48.8498 28.522 47.7227 28.3594L40.5731 27.3406L41.2359 25.3527L44.6577 24.2073C44.7226 24.1857 44.7881 24.1686 44.855 24.1555L60.1804 21.3698L66.5741 22.2837C61.2497 24.2912 57.6195 29.2596 57.3244 34.942L54.3466 34.4489ZM65.4352 33.12L65.3966 33.0996L61.472 30.3683C61.9198 29.5238 62.4705 28.7384 63.1123 28.0297L72.4216 34.5119C72.7357 34.7263 72.9507 35.058 73.0176 35.4324C73.0851 35.8067 72.9986 36.1929 72.7783 36.503C72.5626 36.8138 72.2328 37.0256 71.8604 37.0924C71.488 37.1593 71.1045 37.0754 70.7944 36.8597L65.4352 33.12ZM67.9634 27.9077L65.3533 26.0936C66.8062 25.1409 68.457 24.5338 70.18 24.3188V27.2173C69.413 27.3452 68.6668 27.5773 67.9634 27.9077ZM70.1473 12.2637C71.8073 15.1858 73.0812 18.3112 73.9368 21.5619C73.5775 21.5028 73.2209 21.4497 72.8485 21.4183L71.5182 20.526C70.9819 20.17 70.3735 19.9372 69.7362 19.8461L64.8806 19.1511C65.6477 16.5614 65.5061 13.7874 64.4787 11.2894C63.4867 8.53775 62.1591 5.91916 60.5265 3.49267C64.2479 4.7187 67.4729 7.65593 70.1473 12.2637ZM8.59338 17.059V14.4719C9.50143 15.3602 10.4809 16.2526 11.4808 17.059H8.59338ZM18.4764 17.1245C18.3695 17.0891 18.2587 17.0669 18.1466 17.059H17.1867C15.8335 17.059 12.8904 14.7197 9.9984 11.8211C9.96037 11.7772 9.91907 11.7366 9.87514 11.6992C9.19525 11.0114 8.52061 10.2968 7.87022 9.57365L22.515 12.7135L32.8117 16.5673C33.154 16.6905 33.4346 16.9429 33.5932 17.2708L34.0004 18.0824C34.5131 19.0941 35.4041 19.8618 36.4793 20.2198L38.519 20.9102C39.6008 21.278 40.7848 21.1927 41.803 20.6748L46.4633 18.348C46.4252 18.3722 46.3616 18.4024 46.3636 18.4024L62.1597 13.5409C62.7203 15.2403 62.6442 17.0846 61.9447 18.7315L60.3692 18.5053C60.2164 18.4837 60.061 18.4869 59.9096 18.5138L44.3397 21.3422C44.141 21.3796 43.9456 21.4294 43.7535 21.493L40.3292 22.6384C39.4755 22.9262 38.8048 23.5963 38.5177 24.4506L37.826 26.5289C37.5657 27.3078 37.6529 28.1614 38.0646 28.8721C38.3171 29.299 38.677 29.6517 39.1091 29.8962C39.1313 29.9107 39.1549 29.9238 39.1792 29.9362C39.429 30.0792 39.6985 30.1827 39.9797 30.2437L44.7363 31.195L45.7591 34.2627C45.8076 34.4089 45.8325 34.5617 45.8319 34.7151V35.6776C45.8319 36.4689 45.1907 37.1101 44.4 37.1101H40.3895C40.1063 37.1101 39.8237 37.1383 39.5457 37.1947L34.6475 38.1742C35.4683 30.8128 33.0976 26.1119 30.8409 23.4081C27.7116 19.7615 23.2664 17.5022 18.4764 17.1245ZM31.8689 37.1101H14.3223C13.5316 37.1101 12.8904 36.4689 12.8904 35.6776C12.8897 35.2921 13.0484 34.923 13.3283 34.6581C13.5899 34.3906 13.9486 34.2418 14.3223 34.2457H31.9194C31.9653 35.2003 31.9489 36.1575 31.8689 37.1101ZM17.6896 40.3168C15.6703 41.733 12.9809 41.7369 10.9582 40.3254C9.46996 39.2455 8.59011 37.5166 8.59338 35.6776C8.59666 35.0777 8.68779 34.4811 8.86416 33.9074C9.45947 32.0703 10.9405 30.6568 12.8038 30.148C14.6665 29.6386 16.6609 30.1021 18.1079 31.3812H14.3223C11.9548 31.3944 10.039 33.3101 10.0259 35.6776C10.0259 38.051 11.9496 39.9746 14.3223 39.9746H18.0981C17.9663 40.0919 17.8371 40.2113 17.6942 40.3168H17.6896ZM24.9068 31.3812H21.7558C20.4708 29.1731 18.2731 27.6481 15.7548 27.216V24.3332C19.861 24.8413 23.3667 27.5412 24.9068 31.3812ZM12.8904 24.3345V27.2075C10.2423 27.6559 7.95677 29.3167 6.71172 31.6959L3.97578 30.8082C5.63387 27.2593 9.00184 24.8131 12.8904 24.3345ZM2.86448 35.6776C2.87038 34.9564 2.94513 34.2372 3.08805 33.5297L5.82662 34.4162C5.76368 34.8338 5.7309 35.2554 5.72893 35.6776C5.725 37.9264 6.6101 40.0847 8.19083 41.6832L6.48684 44.0264C4.18296 41.8595 2.87301 38.8403 2.86448 35.6776ZM8.81564 45.6937L10.5026 43.376C12.9087 44.5719 15.7358 44.5719 18.1426 43.376L19.8296 45.6963C16.3882 47.5353 12.2557 47.534 8.81564 45.6937ZM22.1558 44.0225L20.4524 41.6805C20.9566 41.1672 21.3965 40.5948 21.7617 39.9746H24.9442C24.318 41.5094 23.3667 42.8902 22.1558 44.0225ZM33.8194 41.4071L33.9027 41.2439L40.103 40.0034C40.1974 39.9838 40.2931 39.9746 40.3895 39.9746H44.4C46.7727 39.9746 48.6963 38.051 48.6963 35.6776V34.7112C48.697 34.249 48.6223 33.7894 48.476 33.3507L47.8158 31.3727C47.9902 31.4665 48.1436 31.5956 48.2656 31.7523L51.1641 35.6192C51.8224 36.5024 52.798 37.0951 53.8857 37.2708L57.4661 37.8694C57.6542 39.0882 57.9997 40.2775 58.4947 41.4071H33.8194ZM66.0928 45.712L67.7929 43.376C70.1991 44.5706 73.0255 44.5706 75.4323 43.376L77.1323 45.714C73.6975 47.612 69.5277 47.612 66.0928 45.714V45.712ZM79.4441 44.0192L77.744 41.6832C79.6395 39.7746 80.5167 37.0793 80.1069 34.4201L82.8612 33.5278C83.6106 37.3809 82.319 41.3475 79.4441 44.0192Z" fill="#2B3747"/>
</svg>
